<?xml version="1.0" encoding="UTF-8"?>
<svg id="Capa_1" data-name="Capa 1" xmlns="http://www.w3.org/2000/svg" viewBox="0 0 595.28 841.89">
  <path d="M159.06,516.33c-31.62-70.96-34.79-151.3-9.49-225.79,17.39-46.74,45.85-89.1,93.28-115.39,45.85-24.83,105.93-16.07,143.07,19.18" style="fill: none; stroke: #6f786b; stroke-miterlimit: 10; stroke-width: .5px;"/>
  <path d="M465.13,394.15c-.37,47.4-10.62,95.29-33.61,137.87-19.24,35.66-48.92,69.62-89.85,84.94-11.17,4.18-20.29,5.69-23.06,6.12-38.09,5.99-69.74-8.4-83.98-16.08" style="fill: none; stroke: #6f786b; stroke-miterlimit: 10; stroke-width: .5px;"/>
  <path d="M451.18,299.37c9.33,30.81,13.31,62.84,13.95,94.78" style="fill: none; stroke: #6f786b; stroke-miterlimit: 10; stroke-width: .5px;"/>
  <path d="M324.91,383.96c-2.38,1.81-6.18,5.16-11.27,7.35-.9.37-1.93.79-3.03,1.16-1.8,2.56-3.22,4.88-4.57,6.46-2.38,2.84-5.21,4.74-6.82,5.49-.97.42-2.7.93-4.44.93-1.09,0-2.12-.19-2.96-.74-.97-.65-1.42-1.44-1.42-2.28,0-1.26,1.03-2.7,2.9-4,3.15-2.23,8.63-3.77,13.84-5.44l.71-.23c1.87-1.91,3.6-3.95,5.28-5.95-2.96,2.33-6.18,4.46-8.56,3.58-1.16-.46-1.67-1.21-1.67-2.23,0-1.4.97-3.16,2.51-5.12,1.93-2.37,5.34-5.58,5.73-5.91.39-.33.64-.47.97-.33.32.14,2,.14,2.57,0,.64-.14.9.19.64.42-.32.23-3.22,3.58-5.92,6.42-2.64,2.84-5.15,5.72-3.8,6.28,1.61.7,6.76-3.26,9.72-6.09,3.22-3.12,5.67-6.46,5.79-6.6.39-.28.51-.56.96-.42.45.09,2.19.19,2.96-.05.84-.19.97.19.64.42-.26.19-6.44,4.88-10.43,9.4-1.48,1.58-2.77,3.3-3.93,4.98,2.51-.98,4.12-1.81,5.86-2.88,2.58-1.53,5.73-3.91,7.4-5.3,1.67-1.4,4.31-4,4.57-4.19.13-.14.64-.28.97-.28.26.05.39.14.06.51-.71.74-2.96,2.84-5.28,4.65ZM295.69,397.73c-3.73,2-5.21,4.42-3.54,5.44,1.87,1.16,5.6-1.35,9.53-4.74,1.61-1.35,3.35-2.93,5.09-4.7-4.25,1.4-8.69,2.74-11.07,4Z" style="fill: #6f786b;"/>
  <g>
    <path d="M302.1,433.43c0,2.61-1.91,7.38-9.03,15.46-3.01,3.39-6.66,7.12-10.76,10.94,1.09,1.3,1.46,2.52,1.73,3.13.18.43,0,.69-.18.87-.36.09-1.09-.09-1.37-.61-.27-.43-.55-1.3-1.37-2.34-.55.52-1.19,1.04-1.82,1.56-.46,1.91-1,3.73-1.37,5.56-2.37,9.99-6.02,23.36-17.05,29.62-4.92,2.78-10.03,4.17-14.95,4.17-6.2,0-12.03-2.17-16.23-6.51-2.64-2.69-3.92-5.99-3.92-9.47-2.64-1.04-4.19-3.04-5.2-5.3-.36-.78-.55-1.82-.55-2.87,0-6.25,6.29-15.89,20.97-21.28,6.38-2.43,13.31-3.56,19.69-3.56s12.49,1.22,16.78,3.39c.36-.78.64-1.48,1-2.08,3.1-6.51,7.38-13.46,12.22-18.07,4.83-4.52,8.66-6.17,10.39-5.04.55.43,1,1.13,1,2.43ZM272.38,455.75c-3.37-1.04-7.29-1.56-11.4-1.56-6.47,0-13.4,1.22-19.42,3.47-8.75,3.21-19.97,11.99-19.97,19.8,0,.96.18,1.82.55,2.78.73,1.74,2.01,3.04,3.74,3.82.55-5.99,4.65-12.42,11.21-17.28,6.38-4.69,13.13-6.95,18.6-6.95,3.92,0,7.2,1.13,9.12,3.56,1.09,1.39,1.55,2.95,1.55,4.52,0,1.13-.27,2.17-.64,3.13,2.74-1.82,5.38-3.82,7.93-5.82,1.28-2.87,2.28-5.47,3.28-7.64-1.28-.69-2.74-1.3-4.56-1.82ZM264.27,473.91c-1.46,2.43-3.46,4.6-5.2,6.43-4.19,4.34-8.21,5.99-9.21,6.43-.46.17-.91.09-1-.26-.09-.35.18-.78,1.28-1.3,2.01-1.04,6.66-4,9.3-7.12.46-.52,1-1.3,1.64-2.08-4.92,3.04-10.03,5.56-15.13,7.47-6.38,2.34-11.12,3.3-14.77,3.3-1.28,0-2.46-.09-3.46-.35,0,2.52.82,4.95,2.64,7.04,2.19,2.52,5.47,3.73,9.21,3.73,6.11,0,13.58-3.21,19.78-9.12,5.38-5.21,9.57-12.77,12.85-19.72-2.55,1.91-5.2,3.82-7.93,5.56ZM264.72,467.39c0-1.39-.55-2.78-1.73-3.82-1.28-1.13-3.28-1.65-5.65-1.65-6.2,0-15.04,3.39-20.42,8.25-4.74,4.08-8.39,9.47-9.03,14.59,1.09.26,2.37.43,3.74.43,6.56,0,15.32-3.04,23.98-7.82,2.46-1.3,4.92-2.87,7.38-4.52,1-1.82,1.73-3.74,1.73-5.47ZM287.97,441.86c-2.74,3.82-5.29,9.81-7.38,16.33.27.17.46.35.64.52,4.56-4.08,8.39-7.99,10.85-11.03,6.47-7.99,9.57-13.64,7.75-15.11-1.91-1.39-7.75,3.47-11.85,9.29Z" style="fill: #6f786b;"/>
    <path d="M296.64,490.93c-4.38,4.17-13.31,11.12-18.23,9.55-2.46-.87-3.92-2.87-3.92-5.56s1.37-5.82,4.19-9.38c5.93-7.29,14.95-12.85,19.24-10.94,1.28.52,1.82,1.56,1.82,2.78,0,2.35-2.1,5.38-4.92,7.47-3.28,2.43-8.75,4.69-12.86,4.86-2.73,4.6-4.1,8.42-2.55,9.47,1.91,1.3,9.57-2.78,16.59-9.55,6.47-6.25,9.12-10.16,9.57-10.6.18-.17.55-.26.82-.17.46.17.82.43.55.78-.46.52-5.83,7.04-10.3,11.29ZM284.69,485.63c-.73.96-1.37,1.91-1.91,2.87,4.01,0,8.39-3.65,11.03-6.17,2.28-2.17,4.92-5.56,3.28-6.69-1.64-1.13-7.93,3.73-12.4,9.99Z" style="fill: #6f786b;"/>
    <path d="M341.86,444.55c0,3.65-4.47,10.42-10.03,16.24-6.2,6.6-14.04,13.55-19.97,16.59-6.84,11.29-12.12,21.37-10.48,22.23,2.01,1.04,7.38-2.08,12.31-8.77.64-.78,1.18-1.65,1.73-2.43-1.18-1.22-1.64-2.87-1.64-4.6,0-1.3.27-2.69.73-4,1.09-2.87,3.19-4.86,6.02-4.08,1.37.43,2.1,1.74,2.1,3.74,0,2.26-1,5.47-3.19,9.21,2.28.09,4.83-.69,7.29-2.52,2.74-2.17,4.65-5.04,5.93-6.86.37-.43.73-.61,1-.43.37.09.55.52.18,1.13-.64,1.13-3.1,4.78-6.2,7.21-1.82,1.3-5.74,3.21-9.03,2.78-.27.35-.46.7-.73,1.04-5.93,8.17-14.5,10.94-17.69,9.47-1.73-.87-2.64-2.35-2.64-4.52,0-4.95,4.47-13.29,13.49-25.45,10.94-14.68,25.89-30.31,29.63-28.31.82.43,1.19,1.3,1.19,2.34ZM315.97,470.78c-.91,1.48-1.82,2.95-2.74,4.43,3.19-2,9.21-6.34,14.86-13.29,7.57-9.12,11.76-16.24,10.12-17.54-1.64-1.3-13.68,12.68-22.25,26.4ZM315.6,480.68c-.27.78-.36,1.74-.36,2.78,0,1.3.27,2.61,1,3.65,3.28-5.3,5.2-9.81,3.65-10.51-1.64-.61-3.56,1.65-4.29,4.08Z" style="fill: #6f786b;"/>
    <path d="M352.25,491.97c-3.1,3.21-9.03,8.69-12.58,8.69-2.46,0-3.28-2.61-3.28-4.78,0-1.22.18-2.43.55-3.65-2.28,2.52-6.84,8.42-10.58,8.42-2.46,0-4.29-2.52-4.29-5.73,0-7.56,13.31-20.84,20.7-20.84,2.46,0,3.46,1.56,3.46,3.13,1-1.3,1.73-2.17,1.91-2.17s1.28.43,2.55.43c.91,0,1.55-.43,2.1-.43.27,0,.46.17.46.35,0-.17-2.92,4.52-7.48,11.46-2.83,4.34-6.47,9.12-6.47,11.38,0,.61.27,1.04.91,1.04,4.29,0,20.06-17.63,21.42-19.98.18-.26.46-.35.73-.35.37,0,.82.17.82.52,0,.09-.09.17-.09.26-.46.69-7.38,8.6-10.85,12.25ZM343.23,475.38c-4.38,0-17.41,17.11-17.41,22.58,0,.96.46,1.39,1.28,1.39,2.1,0,5.93-3.65,11.12-10.51,4.38-5.82,6.66-9.38,6.66-11.46,0-.69-.27-1.3-.82-1.74-.27-.17-.55-.26-.82-.26Z" style="fill: #6f786b;"/>
    <path d="M375.87,487.89c-2.92,2.61-6.29,4.52-9.39,5.73-.73,1.48-1.82,3.04-3.46,4.34-2.28,1.82-5.2,2.69-7.57,2.69-1.64,0-3.01-.43-3.83-1.13-.82-.69-1.37-1.74-1.37-3.04,0-1.56.82-3.56,2.64-6.08.91-1.22,2.28-.78,2.55.26.27,1.04.73,1.74,1.55,2.34.73.61,2.28.96,2.64.96s.55-.17.82-.52c.36-.43,2.01-2.69,2.46-6.17.73-5.47-1.64-6.34-1.46-8.25.09-1.82,1-2.95,2.01-4.52,1.37-2,3.56-4.52,5.56-3.39,1.92,1.13.09,2.78-.91,3.91-.91,1.04-2.19,2.08-2.37,3.39-.27,2.26,2.1,5.38,2,8.77,0,1.3-.09,2.95-.64,4.69,2.19-.96,5.2-2.52,7.57-4.6,3.92-3.39,6.84-7.47,7.38-8.16.55-.61,1.73.09,1.09.87-1.28,1.74-5.38,6.17-7.29,7.9ZM355.81,493.88c-.55-.43-1.28-1.48-1.46-1.82-.18-.35-.37-.09-.55.09-.18.09-1,.78-1.82,2.43-.82,1.74-.27,3.73.91,4.43,1.09.61,2.64.26,4.1-1.04.91-.87,2.1-2.43,1.64-2.61-.55-.09-2.28-.96-2.83-1.48Z" style="fill: #6f786b;"/>
  </g>
  <g>
    <path d="M285.21,248.95c-1.64,2.61-6.11,6.34-8.84,9.12-3.83,3.82-11.58,9.64-20.15,23.02-8.48,13.38-15.04,32.48-27.17,41.17-5.47,3.91-11.12,5.47-16.23,5.47-6.29,0-11.67-2.34-14.95-5.91-2.37-2.52-3.46-5.91-3.46-9.47,0-5.91,3.19-12.42,9.3-16.5.64-.43,1.37-.52,1.64-.35.36.26.27.87-1,1.56-4.29,2.61-8.3,9.47-8.3,15.11,0,2.17.55,4.17,1.91,5.65,2.19,2.43,5.56,3.65,9.48,3.65,5.29,0,11.67-2.26,17.96-6.86,6.2-4.52,15.68-16.85,24.34-28.49-2.64,2.69-8.02,7.9-11.12,10.16-2.64,2-6.38,4.34-10.03,4.34-1.46,0-3.01-.43-4.38-1.39-2.1-1.39-2.92-3.91-2.92-6.86,0-3.91,1.46-8.42,3.74-11.99,4.01-6.17,13.58-14.94,17.05-19.28,2.37-2.95,4.47-6.43,4.47-9.12,0-1.22-.36-2.26-1.46-3.13-1.19-.96-3.01-1.39-5.2-1.39-1.37,0-2.92.17-4.56.52,1.46,5.73-2.83,14.33-9.76,21.71-7.48,7.9-14.22,11.99-18.78,11.99-1.55,0-2.92-.52-3.92-1.48-1.09-1.13-1.64-2.61-1.64-4.26,0-5.12,4.74-12.25,12.03-18.5,5.47-4.6,12.95-8.95,19.97-10.68-.36-.78-.91-1.48-1.55-2-1.09-.87-2.64-1.22-4.38-1.22-5.74,0-13.77,4.08-17.96,7.82-5.56,4.95-9.21,9.64-9.85,10.51-.18.35-.55.61-.91.61-.46.09-.91-.26-.55-1.13.64-1.48,5.74-7.38,10.58-11.38,3.83-3.13,12.22-7.73,18.69-7.73,2.1,0,4.1.52,5.56,1.74.82.69,1.46,1.48,1.91,2.43,1.64-.35,3.19-.52,4.74-.52,3.19,0,6.02.78,8.21,2.61,1.82,1.56,2.64,3.73,2.64,6.17,0,4.43-2.64,9.73-5.56,13.98-4.38,6.34-11.76,12.59-15.68,17.37-2.73,3.3-4.92,6.6-4.92,9.21,0,1.22.46,2.26,1.55,3.13.82.69,1.73,1.04,2.92,1.04,3.83,0,10.03-4.08,20.6-15.37,3.46-3.56,6.56-6.95,9.3-9.99,3.1-4.17,5.83-7.73,7.75-9.99,6.47-7.56,11.94-13.81,15.5-16.5,1.64-1.13,2.83-1.65,3.56-1.04.64.52.46,1.39-.18,2.43ZM214.18,258.68c-8.21,7.04-11.31,13.2-11.31,17.11,0,1.48.46,2.52,1.19,3.3.55.61,1.46.87,2.55.87,3.92,0,10.85-3.82,17.69-11.03,7.11-7.47,10.67-15.55,9.48-20.58-6.29,1.56-13.77,5.3-19.6,10.34Z" style="fill: #6f786b;"/>
    <path d="M282.84,303.32c-4.47,4.69-9.57,9.64-13.22,7.82-2.19-1.04-2.74-3.21-2.28-5.91-4.01,4-8.21,7.47-11.4,5.91-1.64-.87-2.37-2.26-2.37-4.17,0-2.61,1.37-5.91,3.56-9.55,2.74-4.43,7.66-10.42,8.21-11.03.46-.61.82-.87,1.28-.61.46.26,2.83.17,3.74-.09.82-.26,1.19.35.82.78-.36.43-4.56,6.77-8.3,12.07-3.83,5.3-7.29,10.6-5.47,11.73,1.91,1.04,8.02-4.26,11.67-9.81,4.29-6.51,7.02-10.34,9.85-14.07.46-.61.82-.87,1.37-.61.46.26,2.73.17,3.65-.09.82-.26,1.19.35.82.78-.36.43-4.47,6.77-8.3,12.07-3.74,5.3-7.29,10.6-5.38,11.73,1.82,1.04,6.66-3.65,10.67-7.64,4.1-4.08,10.94-12.25,11.31-12.77.27-.26.73-.35,1-.17.36.09.55.52.09,1.13-.55.69-6.75,7.82-11.31,12.51Z" style="fill: #6f786b;"/>
    <path d="M336.72,290.9c-1,1.04-5.83,6.95-10.3,11.46-4.47,4.43-9.75,9.9-13.4,9.03-1.91-.43-2.73-2-2.73-3.91s.64-3.91,1.73-5.65c2.28-3.65,11.4-14.33,9.85-14.94-1.64-.61-9.3,5.47-14.5,12.25-5.2,6.77-7.75,10.6-8.3,11.38s-.73.87-1.37.43c-.64-.43-3.01-.35-3.74,0-.73.26-.73-.43-.18-1.13s5.93-8.86,7.66-11.2c1.64-2.34,7.38-10.6,5.93-11.12-1.37-.61-9.21,5.21-14.68,12.07-5.47,6.77-7.57,10.34-7.93,10.86-.36.61-.91.78-1.28.43-.36-.35-2.74-.17-3.65.17-.82.26-.91-.43-.46-1.22.46-.78,15.32-23.19,15.86-23.8.55-.69.73-.87,1.37-.52.64.26,2.01.43,3.19.26,1.09-.09,1.09.35.82.78-.36.43-4.28,6.34-4.47,6.77-.18.43-.36.78.46.09.82-.69,2.64-2.43,5.56-4.6,2.92-2.17,6.84-4.6,9.3-3.73,1.28.43,1.82,1.39,1.82,2.61s-.55,2.69-1.18,4.26c-.27.52.09.43.55,0,.46-.35,2.92-2.78,5.29-4.43,2.46-1.74,5.29-3.3,7.38-2.69,1.18.35,1.73,1.48,1.73,2.78,0,1.13-.46,2.52-1.19,3.65-1.73,2.43-7.38,9.64-9.57,12.59-2.19,2.87-3.56,5.56-2.46,6.25,1.64,1.04,6.93-3.56,11.12-7.9,4.38-4.43,9.85-11.03,10.67-11.99.37-.43.82-.61,1.09-.52.36.09.55.61,0,1.22Z" style="fill: #6f786b;"/>
    <path d="M355.23,302.71c-3.1,3.21-9.03,8.69-12.58,8.69-2.46,0-3.28-2.61-3.28-4.78,0-1.22.18-2.43.55-3.65-2.28,2.52-6.84,8.42-10.58,8.42-2.46,0-4.29-2.52-4.29-5.73,0-7.56,13.31-20.84,20.7-20.84,2.46,0,3.46,1.56,3.46,3.13,1-1.3,1.73-2.17,1.91-2.17s1.28.43,2.55.43c.91,0,1.55-.43,2.1-.43.27,0,.46.17.46.35,0-.17-2.92,4.52-7.48,11.46-2.83,4.34-6.47,9.12-6.47,11.38,0,.61.27,1.04.91,1.04,4.29,0,20.06-17.63,21.42-19.98.18-.26.46-.35.73-.35.37,0,.82.17.82.52,0,.09-.09.17-.09.26-.46.69-7.38,8.6-10.85,12.25ZM346.21,286.12c-4.38,0-17.41,17.11-17.41,22.58,0,.96.46,1.39,1.28,1.39,2.1,0,5.93-3.65,11.12-10.51,4.38-5.82,6.66-9.38,6.66-11.46,0-.7-.27-1.3-.82-1.74-.27-.17-.55-.26-.82-.26Z" style="fill: #6f786b;"/>
    <path d="M383.86,302.8c-3.65,3.82-10.03,9.99-13.68,8.69-2.01-.69-3.01-2.26-3.01-4.34,0-1.82.82-4,2.37-6.25,3.28-4.69,11.21-13.38,9.94-14.24-1.28-.96-8.93,4.6-14.68,11.03-3.46,3.91-8.3,11.64-8.66,12.33-.46.69-.91.96-1.37.69-.46-.26-2.37-.52-3.37-.09-1.09.43-1.09,0-.55-1.04.55-1.04,14.04-21.11,15.41-23.02.18-.35.73-.69,1.55-.43.82.17,2.19.09,3.37-.26,1.09-.35,1,.26.64.87-.46.61-3.65,5.47-4.1,6.25-.18.26-.18.35-.09.35s.46-.35.73-.61c.55-.52,4.1-3.56,6.47-5.12,2.37-1.56,6.47-3.47,8.39-2,2.28,1.74-.64,6.6-2.46,8.69-1.92,2.08-7.48,9.47-8.84,11.55-1.37,2-2.19,4.17-.64,4.69,1.91.61,7.75-4.69,11.4-8.42,3.56-3.73,9.3-10.16,10.48-11.81.91-1.39,2.01-.43,1.46.35-1.28,1.82-7.2,8.51-10.76,12.16Z" style="fill: #6f786b;"/>
    <path d="M412.76,302.71c-3.1,3.21-9.03,8.69-12.58,8.69-2.46,0-3.28-2.61-3.28-4.78,0-1.22.18-2.43.55-3.65-2.28,2.52-6.84,8.42-10.58,8.42-2.46,0-4.29-2.52-4.29-5.73,0-7.56,13.31-20.84,20.7-20.84,2.46,0,3.46,1.56,3.46,3.13,1-1.3,1.73-2.17,1.91-2.17s1.28.43,2.55.43c.91,0,1.55-.43,2.1-.43.27,0,.46.17.46.35,0-.17-2.92,4.52-7.48,11.46-2.83,4.34-6.47,9.12-6.47,11.38,0,.61.27,1.04.91,1.04,4.29,0,20.06-17.63,21.42-19.98.18-.26.46-.35.73-.35.37,0,.82.17.82.52,0,.09-.09.17-.09.26-.46.69-7.38,8.6-10.85,12.25ZM403.74,286.12c-4.38,0-17.41,17.11-17.41,22.58,0,.96.46,1.39,1.28,1.39,2.1,0,5.93-3.65,11.12-10.51,4.38-5.82,6.66-9.38,6.66-11.46,0-.7-.27-1.3-.82-1.74-.27-.17-.55-.26-.82-.26Z" style="fill: #6f786b;"/>
  </g>
  <path d="M395.15,218.42s-.21-.1-.35-.12c-.13-.02-.27-.03-.43-.02-.04-.03-.09-.05-.13-.08q.3.07.9.22-.6-.15-.9-.22c-1.69-.72-5.13-1.83-9.3-.77-1.27.33-4.7,1.28-7.79,4.83-.89,1.02-4.25,4.87-3.57,7.48.8,3.08,7.42,3.94,12.34,1.4,6.5-3.36,9.53-12.4,9.23-12.72Z" style="fill: #6f786b;"/>
  <path d="M409.92,221.08c-.06,0-.13,0-.22.01-.08.02-.16.04-.25.07-.03,0-.06,0-.09,0-.9.19-2.56.68-4.76,1.11-.24.12-.48.24-.72.37-.61.34-2.47,1.43-3.7,3.66-.35.62-1.66,2.99-.84,4.01.98,1.22,4.82.3,7.32-1.79,3.01-2.51,4.18-6.8,3.44-7.36-.05-.04-.12-.06-.2-.06Z" style="fill: #6f786b;"/>
  <path d="M402.27,200.75c-6.84-6.25-15.97-9.24-17.14-6.55-.87,2.01,2.8,6.98,4.5,9.27,5.57,7.53,12.04,12.12,17.1,14.99,2.82.57,5.65,1.77,8.31,3.21-1.06-3.85-5.29-14.1-12.76-20.93Z" style="fill: #7e897a;"/>
  <path d="M431.72,238.75c.11,1.85-4.79,5.71-7.43,2.93-1.07-1.13-1.91-3.5-1.31-4.75,1.24-2.6,8.62-.38,8.74,1.82Z" style="fill: #6f786b;"/>
  <path d="M439.89,263.55c-.19-.49.79-3.89,1.74-4.32.39-.17.81.12.76.77-.11,1.34-2.28,4.13-2.5,3.55Z" style="fill: #6f786b;"/>
  <path d="M442.33,270.24c-.3.46-2.8,0-3.25-1.4-.18-.56-.05-1.35.4-1.48.93-.26,3.21,2.32,2.85,2.87Z" style="fill: #6f786b;"/>
  <path d="M443.68,278.62c-.3.46-2.8,0-3.25-1.4-.18-.56-.05-1.35.4-1.48.93-.26,3.21,2.32,2.85,2.87Z" style="fill: #6f786b;"/>
  <path d="M443.01,273.57c-.09-.53,1.17-4.79,2.02-5.52.35-.3.67-.04.54.73-.27,1.61-2.45,5.43-2.56,4.79Z" style="fill: #6f786b;"/>
  <path d="M439.56,261.62c-.5.44-4.39-.94-5.03-2.73-.26-.73-.02-1.61.69-1.61,1.47,0,4.95,5.83,4.33,4.35Z" style="fill: #6f786b;"/>
  <path d="M420.82,223.01c.01-2.41-4.94-11.04-2.07-15.45,1.17-1.79,3.84-3.13,4.62-1.23,2.02,4.9-2.6,28.51-2.55,16.68Z" style="fill: #6f786b;"/>
  <path d="M424.43,231.26c-1.77.03-8.03,6.91-11.33,3.09-1.35-1.55-2.39-5.15-1.01-6.25,3.57-2.83,21.06,3.01,12.34,3.15Z" style="fill: #6f786b;"/>
  <path d="M436.9,249.98c-.49,1.81.6-6.64,2.59-7.14.77-.19,1.78.76,1.72,1.8-.12,2.15-3.97,4.08-4.31,5.33Z" style="fill: #6f786b;"/>
  <path d="M430.06,235.55c-1.32-.5-2.33-8.07.48-10.49,1.15-.99,3.07-1.24,3.74-.05,1.38,2.48-2.65,11.13-4.22,10.54Z" style="fill: #7e897a;"/>
  <path d="M436.18,250.14c1.16-.99-5.2,5-7.62,1.87-.98-1.27-1.63-3.75-.94-4.91,1.44-2.41,7.48,3.96,8.56,3.04Z" style="fill: #6f786b;"/>
  <path d="M443.4,276.37c-.1-3.85-1.57-8.85-4.43-18.9-2.76-9.69-4.52-16.7-9-23.03-9.14-12.91-22.17-17.13-34.94-16.5-.37.02-3.96,1.18-3.9,1.89.08.98,6.92-.34,13.27.59,11.62,1.71,25.76,11.61,30.9,26.72,2.71,7.98,4.73,16.95,4.73,16.96,2.68,6.53,3.4,9.79,3.38,11.49,0,.02,0,.09,0,.19-.01,1.48.08,2.34.22,4.37.1,1.35.19,2.78.19,2.78h0s.59,4.84.59,4.84h0s2.44,6.35,2.44,6.35h0c.11.15.22.3.33.45,1.33,1.78,2.71,3.35,4.12,4.73-2.05-2.29-3.53-3.98-3.78-4.3-.19-.24-.37-.48-.37-.48s-.15-.2-.3-.41c-3.08-4.32-3.44-17.75-3.44-17.75Z" style="fill: #7e897a;"/>
  <path d="M252.41,608.26c.05.04.41.13.68.17.26.04.55.07.87.09.08.03.17.07.25.1q-.6-.12-1.81-.37,1.2.24,1.81.37c3.3.99,10.11,2.67,19.02,2.18,2.72-.15,10.08-.63,17.46-3.84,2.12-.92,10.15-4.42,9.46-7.22-.81-3.31-14.26-5.19-25.12-3.29-14.36,2.51-23.14,11.43-22.62,11.81Z" style="fill: #7e897a;"/>
  <path d="M222.6,603.32c.13,0,.27.02.46.02.17,0,.34-.02.54-.04.06,0,.12.01.18.02,1.91-.06,5.48-.33,10.15-.44.53-.09,1.06-.18,1.58-.28,1.36-.26,5.5-1.12,8.66-3.24.89-.59,4.25-2.85,2.85-4.03-1.68-1.41-9.89-1.03-15.64.76-6.92,2.16-10.53,6.43-9.16,7.12.1.05.24.08.39.1Z" style="fill: #7e897a;"/>
  <path d="M232.79,625.53c12.42,7.5,30.47,11.95,33.63,9.34,2.36-1.95-3.86-7.65-6.73-10.28-9.43-8.64-21.55-14.35-31.2-18.08-5.67-1.01-11.2-2.68-16.29-4.57,1.13,4.15,7.04,15.4,20.59,23.59Z" style="fill: none;"/>
  <path d="M182.4,581.75c.29-1.93,11.49-5.2,16.18-1.93,1.91,1.33,2.98,3.91,1.39,5.12-3.29,2.51-17.92-.89-17.57-3.19Z" style="fill: #6f786b;"/>
  <path d="M172.38,554.83c.25.53-2.71,3.92-4.79,4.22-.85.12-1.65-.25-1.36-.91.59-1.37,5.85-3.94,6.16-3.31Z" style="fill: #7e897a;"/>
  <path d="M169.19,547.53c.75-.43,5.79.43,6.34,1.93.22.61-.27,1.41-1.24,1.47-2,.13-6-2.89-5.1-3.4Z" style="fill: #7e897a;"/>
  <path d="M168.72,538.65c.75-.43,5.79.43,6.34,1.93.22.61-.27,1.41-1.24,1.47-2,.13-6-2.89-5.1-3.4Z" style="fill: #7e897a;"/>
  <path d="M168.71,543.98c.05.57-3.75,4.8-5.71,5.42-.8.26-1.39-.05-.91-.84.99-1.63,6.56-5.26,6.61-4.59Z" style="fill: #7e897a;"/>
  <path d="M172.54,556.88c1.15-.39,8.81,1.63,9.64,3.58.34.79-.41,1.68-1.88,1.57-3.05-.22-8.62-6.78-7.76-5.15Z" style="fill: #7e897a;"/>
  <path d="M200.59,599.69c-.69,2.5,7.16,12.18,0,16.32-2.91,1.68-8.8,2.67-9.89.59-2.82-5.38,13.28-29.17,9.89-16.91Z" style="fill: #6f786b;"/>
  <path d="M195.4,590.61c3.68.23,18.51-5.97,24.3-1.52,2.35,1.81,3.51,5.69.35,6.62-8.16,2.41-42.71-6.25-24.65-5.11Z" style="fill: #6f786b;"/>
  <path d="M174.8,569.34c1.52-1.8-3.07,6.8-7.32,7.01-1.64.08-3.47-1.06-3.06-2.13.85-2.21,9.33-3.64,10.38-4.89Z" style="fill: #6f786b;"/>
  <path d="M184.96,585.32c2.59.71,2.59,8.71-3.9,10.8-2.64.85-6.69.83-7.74-.51-2.17-2.77,8.56-11.14,11.64-10.3Z" style="fill: #6f786b;"/>
  <path d="M176.35,569.29c-2.67.85,12.15-4.41,16.27-.8,1.68,1.47,2.34,4.13.58,5.23-3.64,2.29-14.37-5.22-16.85-4.43Z" style="fill: #6f786b;"/>
  <path d="M168.68,541.02c1.21,5.69,1.72,8.55,2.05,10.48.82,4.79.9,6.34,1.89,9.76,3.02,10.46,4.73,17.98,12.24,25.21,15.32,14.74,41.11,21.05,67.7,22.3.76.04,8.51-.63,8.59-1.38.1-1.02-14.41-.67-27.28-2.59-23.56-3.51-50.06-15.86-56.51-32.3-3.4-8.68-5.08-18.28-5.08-18.28-3.73-7.17-4.32-10.65-3.81-12.41,0-.01.01-.05.03-.09,0,0,.02-.05.03-.1.62-2.19.19-2.98.19-2.98-.25-.45-.57-.51-.8-1.14-.09-.25-.12-.47-.14-.62-.08-1.21-.17-2.42-.25-3.63-.15-2.14-.6-3.99-.89-4.84-.35-1.01-1.01-2.49-2.28-4.11-.47-.68-.66-.95-.66-.95,0,0,.66.95.66.95.21-.13-5.67-8.2-5.63-8.23.03-.02,2.39,3.09,4.97,7.27,1.67,2.71,2.93,5.07,2.94,5.06,0,0-.38-.7-2.28-4.11,0-.03,0-.03,0-.03,0,0,0,.03,0,.03-.04.03-5.66-8.21-5.63-8.23.03-.02,2.73,3.06,4.97,7.27,2.02,3.81,3.04,8.48,4.99,17.67Z" style="fill: #7e897a;"/>
</svg>