<?xml version="1.0" encoding="UTF-8"?>
<svg id="Capa_1" data-name="Capa 1" xmlns="http://www.w3.org/2000/svg" viewBox="0 0 595.28 841.89">
  <path d="M320.63,391.69c-2.22,1.81-5.75,5.16-10.48,7.35-.84.37-1.8.79-2.81,1.16-1.68,2.56-2.99,4.88-4.25,6.46-2.21,2.84-4.85,4.74-6.35,5.49-.9.42-2.51.93-4.13.93-1.02,0-1.98-.19-2.75-.74-.9-.65-1.32-1.44-1.32-2.28,0-1.26.96-2.7,2.69-4,2.93-2.23,8.02-3.77,12.87-5.44l.66-.23c1.74-1.91,3.35-3.95,4.91-5.95-2.75,2.33-5.75,4.46-7.96,3.58-1.08-.46-1.56-1.21-1.56-2.23,0-1.4.9-3.16,2.33-5.12,1.8-2.37,4.97-5.58,5.33-5.91s.6-.47.9-.33c.3.14,1.86.14,2.39,0,.6-.14.84.19.6.42-.3.23-2.99,3.58-5.51,6.42-2.46,2.84-4.79,5.72-3.53,6.28,1.5.7,6.29-3.26,9.04-6.09,2.99-3.12,5.27-6.46,5.39-6.6.36-.28.48-.56.9-.42.42.09,2.04.19,2.75-.05.78-.19.9.19.6.42-.24.19-5.99,4.88-9.7,9.4-1.38,1.58-2.57,3.3-3.65,4.98,2.33-.98,3.83-1.81,5.45-2.88,2.39-1.53,5.33-3.91,6.88-5.3,1.56-1.4,4.01-4,4.25-4.19.12-.14.6-.28.9-.28.24.05.36.14.06.51-.66.74-2.75,2.84-4.91,4.65ZM293.45,405.46c-3.47,2-4.85,4.42-3.29,5.44,1.74,1.16,5.21-1.35,8.86-4.74,1.5-1.35,3.11-2.93,4.73-4.7-3.95,1.4-8.08,2.74-10.3,4Z" style="fill: #6f786b;"/>
  <g>
    <path d="M284.25,280.58c-1.53,2.61-5.68,6.34-8.23,9.12-3.56,3.82-10.77,9.64-18.74,23.02-7.89,13.38-13.99,32.48-25.27,41.17-5.09,3.91-10.34,5.47-15.09,5.47-5.85,0-10.85-2.35-13.91-5.91-2.2-2.52-3.22-5.91-3.22-9.47,0-5.91,2.97-12.42,8.65-16.5.59-.43,1.27-.52,1.53-.35.34.26.25.87-.93,1.56-3.99,2.61-7.72,9.47-7.72,15.11,0,2.17.51,4.17,1.78,5.65,2.04,2.43,5.17,3.65,8.82,3.65,4.92,0,10.85-2.26,16.7-6.86,5.77-4.52,14.58-16.85,22.64-28.49-2.46,2.69-7.46,7.9-10.34,10.16-2.46,2-5.94,4.34-9.33,4.34-1.36,0-2.8-.43-4.07-1.39-1.95-1.39-2.71-3.91-2.71-6.86,0-3.91,1.36-8.42,3.48-11.99,3.73-6.17,12.63-14.94,15.86-19.28,2.2-2.95,4.15-6.43,4.15-9.12,0-1.22-.34-2.26-1.36-3.13-1.1-.96-2.8-1.39-4.83-1.39-1.27,0-2.71.17-4.24.52,1.36,5.73-2.63,14.33-9.07,21.71-6.95,7.9-13.23,11.99-17.47,11.99-1.44,0-2.71-.52-3.65-1.48-1.02-1.13-1.53-2.61-1.53-4.26,0-5.12,4.41-12.25,11.19-18.5,5.09-4.6,12.04-8.95,18.57-10.68-.34-.78-.85-1.48-1.44-2-1.02-.87-2.46-1.22-4.07-1.22-5.34,0-12.8,4.08-16.7,7.82-5.17,4.95-8.56,9.64-9.16,10.51-.17.35-.51.61-.85.61-.42.09-.85-.26-.51-1.13.59-1.48,5.34-7.38,9.84-11.38,3.56-3.13,11.36-7.73,17.38-7.73,1.95,0,3.82.52,5.17,1.74.76.69,1.36,1.48,1.78,2.43,1.53-.35,2.97-.52,4.41-.52,2.97,0,5.6.78,7.63,2.61,1.7,1.56,2.46,3.73,2.46,6.17,0,4.43-2.46,9.73-5.17,13.98-4.07,6.34-10.94,12.59-14.58,17.37-2.54,3.3-4.58,6.6-4.58,9.21,0,1.22.42,2.26,1.44,3.13.76.69,1.61,1.04,2.71,1.04,3.56,0,9.33-4.08,19.16-15.37,3.22-3.56,6.11-6.95,8.65-9.99,2.88-4.17,5.43-7.73,7.21-9.99,6.02-7.56,11.11-13.81,14.42-16.5,1.53-1.13,2.63-1.65,3.31-1.04.59.52.42,1.39-.17,2.43ZM218.19,290.3c-7.63,7.04-10.51,13.2-10.51,17.11,0,1.48.42,2.52,1.1,3.3.51.61,1.36.87,2.37.87,3.65,0,10.09-3.82,16.45-11.03,6.61-7.47,9.92-15.55,8.82-20.58-5.85,1.56-12.8,5.3-18.23,10.34Z" style="fill: #6f786b;"/>
    <path d="M282.04,334.95c-4.15,4.69-8.9,9.64-12.29,7.82-2.04-1.04-2.54-3.21-2.12-5.91-3.73,4-7.63,7.47-10.6,5.91-1.53-.87-2.2-2.26-2.2-4.17,0-2.61,1.27-5.91,3.31-9.55,2.54-4.43,7.12-10.42,7.63-11.03.42-.61.76-.87,1.19-.61.42.26,2.63.17,3.48-.09.76-.26,1.1.35.76.78-.34.43-4.24,6.77-7.72,12.07-3.56,5.3-6.78,10.6-5.09,11.73,1.78,1.04,7.46-4.26,10.85-9.81,3.99-6.51,6.53-10.34,9.16-14.07.42-.61.76-.87,1.27-.61.42.26,2.54.17,3.39-.09.76-.26,1.1.35.76.78s-4.15,6.77-7.72,12.07c-3.48,5.3-6.78,10.6-5,11.73,1.7,1.04,6.19-3.65,9.92-7.64,3.82-4.08,10.18-12.25,10.51-12.77.25-.26.68-.35.93-.17.34.09.51.52.08,1.13-.51.69-6.27,7.82-10.51,12.51Z" style="fill: #6f786b;"/>
    <path d="M332.15,322.52c-.93,1.04-5.43,6.95-9.58,11.46-4.15,4.43-9.07,9.9-12.46,9.03-1.78-.43-2.54-2-2.54-3.91s.59-3.91,1.61-5.65c2.12-3.65,10.6-14.33,9.16-14.94-1.53-.61-8.65,5.47-13.48,12.25-4.83,6.77-7.21,10.6-7.72,11.38s-.68.87-1.27.43c-.59-.43-2.8-.35-3.48,0-.68.26-.68-.43-.17-1.13s5.51-8.86,7.12-11.2c1.53-2.34,6.87-10.6,5.51-11.12-1.27-.61-8.56,5.21-13.65,12.07-5.09,6.77-7.04,10.34-7.38,10.86-.34.61-.85.78-1.19.43-.34-.35-2.54-.17-3.39.17-.76.26-.85-.43-.42-1.22.42-.78,14.25-23.19,14.75-23.8.51-.7.68-.87,1.27-.52.59.26,1.87.43,2.97.26,1.02-.09,1.02.35.76.78-.34.43-3.99,6.34-4.16,6.77-.17.43-.34.78.42.09.76-.69,2.46-2.43,5.17-4.6,2.71-2.17,6.36-4.6,8.65-3.73,1.19.43,1.7,1.39,1.7,2.61s-.51,2.69-1.1,4.26c-.25.52.08.43.51,0,.42-.35,2.71-2.78,4.92-4.43,2.29-1.74,4.92-3.3,6.87-2.69,1.1.35,1.61,1.48,1.61,2.78,0,1.13-.42,2.52-1.1,3.65-1.61,2.43-6.87,9.64-8.9,12.59-2.04,2.87-3.31,5.56-2.29,6.25,1.53,1.04,6.44-3.56,10.34-7.9,4.07-4.43,9.16-11.03,9.92-11.99.34-.43.76-.61,1.02-.52.34.09.51.61,0,1.22Z" style="fill: #6f786b;"/>
    <path d="M349.37,334.34c-2.88,3.21-8.39,8.69-11.7,8.69-2.29,0-3.05-2.61-3.05-4.78,0-1.22.17-2.43.51-3.65-2.12,2.52-6.36,8.42-9.84,8.42-2.29,0-3.98-2.52-3.98-5.73,0-7.56,12.38-20.84,19.25-20.84,2.29,0,3.22,1.56,3.22,3.13.93-1.3,1.61-2.17,1.78-2.17s1.19.43,2.38.43c.85,0,1.44-.43,1.95-.43.25,0,.42.17.42.35,0-.17-2.71,4.52-6.95,11.46-2.63,4.34-6.02,9.12-6.02,11.38,0,.61.25,1.04.85,1.04,3.99,0,18.66-17.63,19.93-19.98.17-.26.42-.35.68-.35.34,0,.76.17.76.52,0,.09-.08.17-.08.26-.42.69-6.87,8.6-10.09,12.25ZM340.97,317.75c-4.07,0-16.2,17.11-16.2,22.58,0,.96.42,1.39,1.19,1.39,1.95,0,5.51-3.65,10.34-10.51,4.07-5.82,6.19-9.38,6.19-11.46,0-.69-.25-1.3-.76-1.74-.25-.17-.51-.26-.76-.26Z" style="fill: #6f786b;"/>
    <path d="M375.99,334.42c-3.39,3.82-9.33,9.99-12.72,8.69-1.87-.69-2.8-2.26-2.8-4.34,0-1.82.76-4,2.2-6.25,3.05-4.69,10.43-13.38,9.24-14.24-1.19-.96-8.31,4.6-13.65,11.03-3.22,3.91-7.72,11.64-8.06,12.33-.42.69-.85.96-1.27.69s-2.21-.52-3.14-.09c-1.02.43-1.02,0-.51-1.04.51-1.04,13.06-21.11,14.33-23.02.17-.35.68-.69,1.44-.43.76.17,2.04.09,3.14-.26,1.02-.35.93.26.59.87-.42.61-3.39,5.47-3.82,6.25-.17.26-.17.35-.08.35s.42-.35.68-.61c.51-.52,3.82-3.56,6.02-5.12,2.21-1.56,6.02-3.47,7.8-2,2.12,1.74-.59,6.6-2.29,8.69-1.78,2.08-6.95,9.47-8.22,11.55-1.27,2-2.04,4.17-.59,4.69,1.78.61,7.21-4.69,10.6-8.42,3.31-3.73,8.65-10.16,9.75-11.81.85-1.39,1.87-.43,1.36.35-1.19,1.82-6.7,8.51-10.01,12.16Z" style="fill: #6f786b;"/>
    <path d="M402.87,334.34c-2.88,3.21-8.39,8.69-11.7,8.69-2.29,0-3.05-2.61-3.05-4.78,0-1.22.17-2.43.51-3.65-2.12,2.52-6.36,8.42-9.84,8.42-2.29,0-3.98-2.52-3.98-5.73,0-7.56,12.38-20.84,19.25-20.84,2.29,0,3.22,1.56,3.22,3.13.93-1.3,1.61-2.17,1.78-2.17s1.19.43,2.38.43c.85,0,1.44-.43,1.95-.43.25,0,.42.17.42.35,0-.17-2.71,4.52-6.95,11.46-2.63,4.34-6.02,9.12-6.02,11.38,0,.61.25,1.04.85,1.04,3.99,0,18.66-17.63,19.93-19.98.17-.26.42-.35.68-.35.34,0,.76.17.76.52,0,.09-.08.17-.08.26-.42.69-6.87,8.6-10.09,12.25ZM394.47,317.75c-4.07,0-16.2,17.11-16.2,22.58,0,.96.42,1.39,1.19,1.39,1.95,0,5.51-3.65,10.34-10.51,4.07-5.82,6.19-9.38,6.19-11.46,0-.69-.25-1.3-.76-1.74-.25-.17-.51-.26-.76-.26Z" style="fill: #6f786b;"/>
  </g>
  <g>
    <path d="M300.54,439.73c0,2.61-1.78,7.38-8.4,15.46-2.8,3.39-6.19,7.12-10.01,10.94,1.02,1.3,1.36,2.52,1.61,3.13.17.43,0,.69-.17.87-.34.09-1.02-.09-1.27-.61-.25-.43-.51-1.3-1.27-2.34-.51.52-1.1,1.04-1.7,1.56-.42,1.91-.93,3.73-1.27,5.56-2.2,9.99-5.6,23.36-15.86,29.62-4.58,2.78-9.33,4.17-13.91,4.17-5.77,0-11.19-2.17-15.09-6.51-2.46-2.69-3.65-5.99-3.65-9.47-2.46-1.04-3.9-3.04-4.83-5.3-.34-.78-.51-1.82-.51-2.87,0-6.25,5.85-15.89,19.5-21.28,5.94-2.43,12.38-3.56,18.32-3.56s11.62,1.22,15.6,3.39c.34-.78.59-1.48.93-2.08,2.88-6.51,6.87-13.46,11.36-18.07,4.49-4.52,8.06-6.17,9.67-5.04.51.43.93,1.13.93,2.43ZM272.9,462.05c-3.14-1.04-6.78-1.56-10.6-1.56-6.02,0-12.46,1.22-18.06,3.47-8.14,3.21-18.57,11.99-18.57,19.8,0,.96.17,1.82.51,2.78.68,1.74,1.87,3.04,3.48,3.82.51-5.99,4.32-12.42,10.43-17.28,5.94-4.69,12.21-6.95,17.3-6.95,3.65,0,6.7,1.13,8.48,3.56,1.02,1.39,1.44,2.95,1.44,4.52,0,1.13-.25,2.17-.59,3.13,2.54-1.82,5-3.82,7.38-5.82,1.19-2.87,2.12-5.47,3.05-7.64-1.19-.7-2.54-1.3-4.24-1.82ZM265.35,480.2c-1.36,2.43-3.22,4.6-4.83,6.43-3.9,4.34-7.63,5.99-8.56,6.43-.42.17-.85.09-.93-.26-.08-.35.17-.78,1.19-1.3,1.87-1.04,6.19-4,8.65-7.12.42-.52.93-1.3,1.53-2.08-4.58,3.04-9.33,5.56-14.08,7.47-5.94,2.34-10.34,3.3-13.74,3.3-1.19,0-2.29-.09-3.22-.35,0,2.52.76,4.95,2.46,7.04,2.04,2.52,5.09,3.73,8.56,3.73,5.68,0,12.63-3.21,18.4-9.12,5-5.21,8.9-12.77,11.96-19.72-2.37,1.91-4.83,3.82-7.38,5.56ZM265.78,473.68c0-1.39-.51-2.78-1.61-3.82-1.19-1.13-3.05-1.65-5.26-1.65-5.77,0-13.99,3.39-18.99,8.25-4.41,4.08-7.8,9.47-8.39,14.59,1.02.26,2.2.43,3.48.43,6.11,0,14.25-3.04,22.3-7.82,2.29-1.3,4.58-2.87,6.87-4.52.93-1.82,1.61-3.73,1.61-5.47ZM287.4,448.15c-2.54,3.82-4.92,9.81-6.87,16.33.25.17.42.35.59.52,4.24-4.08,7.8-7.99,10.09-11.03,6.02-7.99,8.9-13.64,7.21-15.11-1.78-1.39-7.21,3.47-11.02,9.29Z" style="fill: #6f786b;"/>
    <path d="M295.45,497.22c-4.07,4.17-12.38,11.12-16.96,9.55-2.29-.87-3.65-2.87-3.65-5.56s1.27-5.82,3.9-9.38c5.51-7.29,13.91-12.85,17.89-10.94,1.19.52,1.7,1.56,1.7,2.78,0,2.35-1.95,5.38-4.58,7.47-3.05,2.43-8.14,4.69-11.96,4.86-2.54,4.6-3.82,8.42-2.37,9.47,1.78,1.3,8.9-2.78,15.43-9.55,6.02-6.25,8.48-10.16,8.9-10.6.17-.17.51-.26.76-.17.42.17.76.43.51.78-.42.52-5.43,7.04-9.58,11.29ZM284.35,491.92c-.68.96-1.27,1.91-1.78,2.87,3.73,0,7.8-3.65,10.26-6.17,2.12-2.17,4.58-5.56,3.05-6.69-1.53-1.13-7.38,3.74-11.53,9.99Z" style="fill: #6f786b;"/>
    <path d="M337.51,450.84c0,3.65-4.16,10.42-9.33,16.24-5.77,6.6-13.06,13.55-18.57,16.59-6.36,11.29-11.28,21.37-9.75,22.23,1.87,1.04,6.87-2.08,11.45-8.77.59-.78,1.1-1.65,1.61-2.43-1.1-1.22-1.53-2.87-1.53-4.6,0-1.3.25-2.69.68-4,1.02-2.87,2.97-4.86,5.6-4.08,1.27.43,1.95,1.74,1.95,3.74,0,2.26-.93,5.47-2.97,9.21,2.12.09,4.49-.69,6.78-2.52,2.54-2.17,4.32-5.04,5.51-6.86.34-.43.68-.61.93-.43.34.09.51.52.17,1.13-.59,1.13-2.88,4.78-5.77,7.21-1.7,1.3-5.34,3.21-8.39,2.78-.25.35-.42.7-.68,1.04-5.51,8.17-13.48,10.94-16.45,9.47-1.61-.87-2.46-2.35-2.46-4.52,0-4.95,4.16-13.29,12.55-25.45,10.17-14.68,24.08-30.31,27.56-28.31.76.43,1.1,1.3,1.1,2.34ZM313.43,477.07l-2.54,4.43c2.97-2,8.56-6.34,13.82-13.29,7.04-9.12,10.94-16.24,9.41-17.54-1.53-1.3-12.72,12.68-20.69,26.4ZM313.09,486.97c-.25.78-.34,1.74-.34,2.78,0,1.3.25,2.61.93,3.65,3.05-5.3,4.83-9.81,3.39-10.51-1.53-.61-3.31,1.65-3.99,4.08Z" style="fill: #6f786b;"/>
    <path d="M347.18,498.26c-2.88,3.21-8.39,8.68-11.7,8.68-2.29,0-3.05-2.61-3.05-4.78,0-1.22.17-2.43.51-3.65-2.12,2.52-6.36,8.42-9.84,8.42-2.29,0-3.98-2.52-3.98-5.73,0-7.56,12.38-20.84,19.25-20.84,2.29,0,3.22,1.56,3.22,3.13.93-1.3,1.61-2.17,1.78-2.17s1.19.43,2.38.43c.85,0,1.44-.43,1.95-.43.25,0,.42.17.42.35,0-.17-2.71,4.52-6.95,11.46-2.63,4.34-6.02,9.12-6.02,11.38,0,.61.25,1.04.85,1.04,3.99,0,18.66-17.63,19.93-19.98.17-.26.42-.35.68-.35.34,0,.76.17.76.52,0,.09-.08.17-.08.26-.42.69-6.87,8.6-10.09,12.25ZM338.78,481.68c-4.07,0-16.2,17.11-16.2,22.58,0,.96.42,1.39,1.19,1.39,1.95,0,5.51-3.65,10.34-10.51,4.07-5.82,6.19-9.38,6.19-11.46,0-.69-.25-1.3-.76-1.74-.25-.17-.51-.26-.76-.26Z" style="fill: #6f786b;"/>
    <path d="M369.14,494.18c-2.71,2.61-5.85,4.52-8.73,5.73-.68,1.48-1.7,3.04-3.22,4.34-2.12,1.82-4.83,2.69-7.04,2.69-1.53,0-2.8-.43-3.56-1.13-.76-.69-1.27-1.74-1.27-3.04,0-1.56.76-3.56,2.46-6.08.85-1.22,2.12-.78,2.37.26.25,1.04.68,1.74,1.44,2.34.68.61,2.12.96,2.46.96s.51-.17.76-.52c.34-.43,1.87-2.69,2.29-6.17.68-5.47-1.53-6.34-1.36-8.25.08-1.82.93-2.95,1.87-4.52,1.27-2,3.31-4.52,5.17-3.39,1.78,1.13.08,2.78-.85,3.91-.85,1.04-2.04,2.08-2.2,3.39-.25,2.26,1.95,5.39,1.87,8.77,0,1.3-.08,2.95-.59,4.69,2.04-.96,4.83-2.52,7.04-4.6,3.65-3.39,6.36-7.47,6.87-8.16.51-.61,1.61.09,1.02.87-1.19,1.74-5,6.17-6.78,7.9ZM350.48,500.17c-.51-.43-1.19-1.48-1.36-1.82-.17-.35-.34-.09-.51.09-.17.09-.93.78-1.7,2.43-.76,1.74-.25,3.73.85,4.43,1.02.61,2.46.26,3.82-1.04.85-.87,1.95-2.43,1.53-2.61-.51-.09-2.12-.96-2.63-1.48Z" style="fill: #6f786b;"/>
  </g>
  <path d="M246.15,609.28s.19,0,.41-.02c.15-.02.32-.06.49-.1.05,0,.1,0,.16.01q-.35.04-1.06.11.71-.08,1.06-.11c2.01-.03,6.08-.3,10.81-2.11,1.45-.55,5.34-2.09,8.64-5.12.95-.87,4.55-4.17,3.56-5.58-1.19-1.7-8.64-.19-14.37,2.56-8.45,4.07-12.85,10.68-12.54,11.02.16.18,2.22-.67,2.83-.66Z" style="fill: #7e897a;"/>
  <path d="M243.01,610.3s.16.01.41-.02c.15-.02.32-.06.49-.1.05,0,.1,0,.16.01q-.35.04-1.06.11c.44-.05.61-.07.76-.08.19-.02.3,0,.3-.03,0-.06-.74-.15-.76-.25-.04-.27,5.89,0,11.57-1.86,4.77-1.56,7.51-4,8.64-5.12.89-.88,4.41-4.37,3.56-5.58-1.12-1.61-9.69,1.01-16.19,5.54-4.49,3.13-8.05,7.2-7.88,7.39Z" style="fill: #7e897a;"/>
  <path d="M227.1,612.79s.1-.02.25-.07c.09-.03.18-.07.28-.11.03,0,.07-.01.1-.02,1.03-.37,2.9-1.13,5.42-2,.27-.14.54-.28.8-.42.68-.38,2.74-1.56,4-3.27.31-.43,1.4-1.91.92-2.51-.08-.1-.18-.15-.26-.18-1.86-.8-3.5-.64-3.5-.64-.57.06-1.58.17-2.56.83-.46.31-.75.63-.92.82-2.02,2.32-4.78,7.44-4.54,7.58Z" style="fill: #7e897a;"/>
  <path d="M227.5,612.68s.1,0,.26.02c.1.01.2.02.31.04.04,0,.07,0,.11,0,1.11.12,3.15.42,5.85.71.3.06.61.13.9.2.77.18,3.12.77,4.82,1.84.42.27,1.9,1.21,1.6,1.72-.05.09-.14.14-.2.17-1.6.85-3.24.96-3.24.96-.57.04-1.59.1-2.74-.25-.54-.16-.91-.36-1.12-.47-2.62-1.42-6.74-4.8-6.55-4.94Z" style="fill: #7e897a;"/>
  <path d="M202.31,606.95c-.26-1.11,5.1-4.83,8.37-3.86,1.33.39,2.47,1.61,1.88,2.55-1.24,1.94-9.93,2.62-10.24,1.31Z" style="fill: #6f786b;"/>
  <path d="M190.97,594.01c.26.25-.62,2.61-1.68,3.13-.43.21-.95.15-.94-.26.02-.85,2.32-3.16,2.62-2.87Z" style="fill: #7e897a;"/>
  <path d="M188.43,590.53c.32-.37,3.24-.77,3.87-.05.26.29.16.81-.35,1.02-1.06.42-3.89-.53-3.52-.97Z" style="fill: #7e897a;"/>
  <path d="M185.45,585.82c.32-.37,3.24-.77,3.87-.05.26.29.16.81-.35,1.02-1.06.42-3.89-.53-3.52-.97Z" style="fill: #7e897a;"/>
  <path d="M186.61,588.73c.15.3-.99,3.27-1.91,3.95-.38.28-.77.21-.68-.3.18-1.06,2.41-4.01,2.59-3.65Z" style="fill: #7e897a;"/>
  <path d="M191.51,595.1c.54-.41,5.14-.64,6.02.28.36.37.14.99-.68,1.18-1.71.41-6.16-2.2-5.34-1.46Z" style="fill: #7e897a;"/>
  <path d="M216.12,613.59c.17,1.48,6.56,5.4,3.57,8.9-1.21,1.42-4.2,2.98-5.25,2.03-2.71-2.44.83-18.21,1.67-10.94Z" style="fill: #6f786b;"/>
  <path d="M211.31,609.53c2.05-.51,8.75-6.46,12.87-5.04,1.67.58,3.15,2.5,1.64,3.55-3.91,2.73-24.57,4-14.51,1.49Z" style="fill: #6f786b;"/>
  <path d="M195.47,601.5c.43-1.25-.18,4.24-2.44,5.09-.87.33-2.12.03-2.13-.63-.02-1.35,4.27-3.6,4.57-4.47Z" style="fill: #6f786b;"/>
  <path d="M204.48,608.46c1.56-.06,3.31,4.3.24,6.57-1.25.92-3.45,1.61-4.32,1.07-1.79-1.14,2.21-7.56,4.07-7.63Z" style="fill: #6f786b;"/>
  <path d="M196.3,601.2c-1.26.93,5.64-4.51,8.66-3.26,1.23.51,2.17,1.84,1.46,2.75-1.48,1.88-8.95-.36-10.12.51Z" style="fill: #6f786b;"/>
  <path d="M186.03,587.31c1.3,1.95,2.83,4.49,2.84,4.49,0,0-.15-.26-.16-.26-.02,0,1.2,2.38,3.02,5.04,0,0,.39.58.84,1.18,3.92,5.22,6.49,9.06,12.16,11.7,11.57,5.38,27.05,4.25,41.87.18,1.56-.43,4.51-2.06,4.4-2.29-.16-.36-7.37,3.19-15.52,4.67-2.84.52-23.94,4.02-37.87-8.91-3.74-3.47-5.88-7.11-6.99-9.28-.09-.09-2.08-2.09-3.45-3.79,0,0-.98-1.22-1.08-2.25,0,0,0-.03,0-.06,0,0,0-.03,0-.06-.13-1.32-.54-1.68-.54-1.68-.23-.21-.42-.18-.68-.49-.13-.15-.19-.28-.21-.32-.34-.69-.83-1.31-1.22-1.98-.7-1.21-2.23-2.81-2.62-3.21-2.72-2.83-5.77-4.88-5.81-4.83-.04.06,4.51,3.59,4.5,3.61-.01.02-4.36-3.38-4.32-3.43.02-.02.9.6,1.61,1.15,3.44,2.61,5.71,5.28,5.7,5.28,0,0-1.07-1.29-2.99-2.99-2-1.77-4.3-3.42-4.32-3.43,0,0-.45-.38-.45-.39,0,0,1.82,1.41,2.93,2.36,4,3.4,6.48,7.15,8.38,9.99Z" style="fill: #7e897a;"/>
  <path d="M231.26,606.92c.24.23.47.47.71.7" style="fill: #7e897a;"/>
  <path d="M222.54,626.22s.1,0,.26-.02c.09-.01.19-.03.3-.05.04,0,.07,0,.1,0,1.08-.15,3.07-.52,5.71-.87.29-.08.58-.17.87-.26.75-.23,3-.98,4.57-2.4.39-.35,1.76-1.59,1.41-2.27-.06-.12-.15-.18-.22-.23-1.66-1.16-3.3-1.33-3.3-1.33-.57-.06-1.58-.15-2.68.29-.51.21-.86.47-1.06.62-2.45,1.87-6.18,6.33-5.97,6.52Z" style="fill: #7e897a;"/>
  <path d="M222.96,626.19s.1.02.26.07c.09.03.19.06.29.1.04,0,.07.01.1.02,1.06.34,3,1.05,5.59,1.87.29.12.57.25.84.38.72.34,2.9,1.38,4.35,2.77.36.35,1.62,1.56,1.22,2-.07.07-.16.11-.23.12-1.74.51-3.37.29-3.37.29-.56-.08-1.58-.22-2.63-.79-.49-.27-.82-.53-1-.69-2.28-1.92-5.64-6.06-5.42-6.16Z" style="fill: #7e897a;"/>
  <path d="M199.43,615.52c-.04-1.14,5.97-3.71,8.97-2.1,1.22.65,2.1,2.08,1.33,2.88-1.6,1.65-10.26.58-10.3-.78Z" style="fill: #6f786b;"/>
  <path d="M190.92,600.56c.2.29-1.13,2.43-2.28,2.73-.47.12-.96-.04-.87-.44.19-.83,2.91-2.63,3.14-2.29Z" style="fill: #7e897a;"/>
  <path d="M189.13,596.64c.38-.3,3.33-.1,3.8.73.19.34,0,.83-.55.92-1.12.2-3.71-1.3-3.25-1.66Z" style="fill: #7e897a;"/>
  <path d="M187.15,591.43c.38-.3,3.33-.1,3.8.73.19.34,0,.83-.55.92-1.12.2-3.71-1.3-3.25-1.66Z" style="fill: #7e897a;"/>
  <path d="M187.71,594.51c.09.33-1.62,3-2.67,3.48-.42.2-.79.05-.6-.43.39-1,3.17-3.44,3.27-3.05Z" style="fill: #7e897a;"/>
  <path d="M191.23,601.74c.61-.29,5.16.41,5.84,1.49.28.44-.06.99-.9,1.02-1.75.06-5.6-3.4-4.94-2.51Z" style="fill: #7e897a;"/>
  <path d="M211.63,624.79c-.13,1.48,5.34,6.61,1.71,9.44-1.48,1.15-4.71,2.08-5.55.94-2.17-2.94,4.47-17.67,3.84-10.38Z" style="fill: #6f786b;"/>
  <path d="M207.73,619.85c2.11-.09,9.87-4.57,13.62-2.35,1.52.9,2.59,3.08.89,3.81-4.37,1.89-24.87-1.02-14.51-1.46Z" style="fill: #6f786b;"/>
  <path d="M193.82,608.81c.67-1.13-1.03,4.12-3.42,4.5-.92.15-2.08-.4-1.96-1.04.25-1.33,4.91-2.67,5.38-3.46Z" style="fill: #6f786b;"/>
  <path d="M201.26,617.43c1.54.25,2.38,4.88-1.08,6.48-1.41.65-3.71.89-4.44.18-1.52-1.47,3.69-6.96,5.52-6.66Z" style="fill: #6f786b;"/>
  <path d="M194.69,608.68c-1.42.65,6.43-3.28,9.14-1.45,1.11.75,1.76,2.24.88,2.99-1.82,1.54-8.69-2.15-10.02-1.54Z" style="fill: #6f786b;"/>
  <path d="M187.42,593.01c.88,2.17,1.87,4.97,1.88,4.97,0,0-.1-.29-.1-.28-.02,0,.69,2.57,1.95,5.55,0,0,.27.65.58,1.32.23.48,5.73,10.03,9.56,13.91,11.18,11.29,45.43,12.06,46.2,8.26.08-.39-.21-.74-.45-1.03-2.53-3.05-9.84,1.6-16.14,1.46-2.88-.06-24.26-.87-35.31-16.33-2.96-4.15-4.33-8.15-4.98-10.5-.07-.1-1.62-2.47-2.62-4.41,0,0-.71-1.4-.6-2.42,0,0,0-.03,0-.06,0,0,0-.03,0-.06.13-1.32-.2-1.75-.2-1.75-.19-.25-.38-.26-.57-.61-.1-.17-.13-.32-.14-.35-.19-.75-.55-1.45-.79-2.18-.45-1.33-1.63-3.2-1.92-3.67-2.09-3.32-4.67-5.94-4.72-5.9-.05.05,3.7,4.42,3.68,4.44-.02.02-3.6-4.19-3.55-4.23.02-.02.76.77,1.35,1.45,2.84,3.25,4.53,6.32,4.53,6.32,0,0-.78-1.48-2.33-3.53-1.6-2.13-3.53-4.21-3.55-4.23,0,0-.37-.47-.36-.47,0,0,1.5,1.75,2.4,2.9,3.23,4.14,4.92,8.3,6.2,11.47Z" style="fill: #7e897a;"/>
  <path d="M227.8,621.3c.19.28.37.55.56.83" style="fill: #7e897a;"/>
  <path d="M348.77,185.79s-.26-.06-.42-.06c-.16,0-.33.02-.51.05-.06-.02-.11-.04-.16-.06q.37.02,1.1.06-.73-.04-1.1-.06c-2.09-.42-6.3-.93-11.17.93-1.49.57-5.48,2.17-8.83,6.36-.96,1.2-4.61,5.76-3.54,8.29,1.25,3,9.24,2.66,14.85-.84,7.43-4.62,10.17-14.41,9.79-14.68Z" style="fill: #6f786b;"/>
  <path d="M366.65,185.78c-.07.01-.15.03-.26.06-.09.03-.19.07-.29.12-.04,0-.07,0-.11,0-1.06.36-2.99,1.17-5.57,2-.28.16-.55.33-.82.51-.7.46-2.81,1.92-4.06,4.41-.35.7-1.69,3.35-.62,4.24,1.28,1.07,5.78-.58,8.57-3.17,3.35-3.12,4.34-7.71,3.4-8.15-.07-.03-.15-.04-.24-.03Z" style="fill: #6f786b;"/>
  <path d="M355.57,166.44c-8.76-5.12-19.94-6.49-21.08-3.54-.85,2.21,4.01,6.61,6.25,8.64,7.37,6.67,15.53,10.16,21.84,12.16,3.42.07,6.91.77,10.22,1.75-1.64-3.73-7.67-13.42-17.24-19.02Z" style="fill: #7e897a;"/>
  <path d="M394.36,199.82c.3,1.87-5.17,6.71-8.58,4.36-1.39-.95-2.61-3.22-2.02-4.61,1.23-2.89,10.24-1.97,10.6.25Z" style="fill: #6f786b;"/>
  <path d="M406.14,219.94c-.26-.41.02-3.68.81-4.24.32-.23.77-.04.84.56.14,1.23-1.34,4.17-1.65,3.68Z" style="fill: #6f786b;"/>
  <path d="M409.51,227.02c-.21.51-2.75.54-3.46-.73-.29-.52-.31-1.31.1-1.53.87-.44,3.61,1.65,3.36,2.26Z" style="fill: #6f786b;"/>
  <path d="M412.95,235.15c-.05.25-2.44.55-3.46-.73-.11-.14-.43-.55-.42-1.12,0-.48.24-1.15.67-1.26.6-.16,1.43.78,1.81,1.49.2.38.25.66.6,1.02.44.46.83.5.81.6Z" style="fill: #6f786b;"/>
  <path d="M412.59,233.34c.12.16,1.99-.49,2.29-1.78.03-.14.12-.54-.09-.95-.17-.34-.58-.73-.94-.66-.5.1-.78,1.08-.81,1.72-.01.34.05.57-.08.95-.16.48-.44.65-.38.72Z" style="fill: #6f786b;"/>
  <path d="M411.22,230.41c-.2-.5.21-4.93.9-5.81.28-.36.64-.17.67.61.05,1.63-1.33,5.8-1.57,5.2Z" style="fill: #6f786b;"/>
  <path d="M408.12,223.59c-.12-.07.09-.56.4-1.51.72-2.21.69-3.06,1.14-3.15.36-.07.85.4.99.88.21.71-.38,1.44-1.36,2.64-.39.48-.99,1.24-1.16,1.14Z" style="fill: #6f786b;"/>
  <path d="M405.68,219.5c-.37.49-4.19-.05-5.1-1.56-.37-.61-.31-1.46.34-1.59,1.35-.27,5.59,4.39,4.76,3.15Z" style="fill: #6f786b;"/>
  <path d="M379.84,185.75c-.22-2.46-6.96-10.36-3.95-15.39,1.22-2.05,4.28-3.9,5.39-2.1,2.88,4.63-.36,29.58-1.44,17.49Z" style="fill: #6f786b;"/>
  <path d="M384.94,193.5c-2.11.36-8.91,8.53-13.22,5.24-1.76-1.34-3.34-4.82-1.8-6.19,3.98-3.55,25.41-.8,15.02.95Z" style="fill: #6f786b;"/>
  <path d="M401.62,210.32c-.41,1.94.07-6.89,2.4-7.76.9-.34,2.2.45,2.23,1.52.06,2.22-4.34,4.9-4.62,6.24Z" style="fill: #6f786b;"/>
  <path d="M392.06,196.85c-1.62-.27-3.56-7.8-.43-10.8,1.27-1.22,3.54-1.83,4.45-.74,1.89,2.27-2.09,11.85-4.02,11.53Z" style="fill: #7e897a;"/>
  <path d="M400.77,210.62c1.29-1.22-5.73,6.06-8.91,3.31-1.29-1.12-2.31-3.52-1.59-4.84,1.48-2.73,9.3,2.67,10.5,1.53Z" style="fill: #6f786b;"/>
  <path d="M391.84,195.75c-12.14-11.5-28.1-13.41-43.28-10.42-.43.09-4.61,1.93-4.47,2.64.19.98,8.23-1.62,15.89-1.83,14.03-.39,31.85,7.11,39.44,21.6,0,0,1.57,2.16,3.92,6.73-4.39-9.41-7.1-14.54-11.5-18.71Z" style="fill: #7e897a;"/>
  <path d="M406.76,221.04c-1.61-3.33-3.07-6.05-4.29-8.17.47.88.95,1.8,1.47,2.77,1.08,2.05,2,3.8,2.82,5.4Z" style="fill: #7e897a;"/>
  <path d="M413.26,235.89c.5,1.45.66,2.01.85,2.55.02.05.06.12.09.21-.61-1.78-1.04-3.63-1.67-5.42-.2-.56-.7-1.96-1.4-3.6-2.19-5.19-4.81-9.43-4.89-9.42-.08.02,2.93,4.96,5.83,12.44.51,1.32.91,2.43,1.19,3.24Z" style="fill: #7e897a;"/>
  <ellipse cx="297.64" cy="409.28" rx="159.14" ry="255.64" style="fill: none; stroke: #6f786b; stroke-miterlimit: 10; stroke-width: .5px;"/>
</svg>